<?xml version="1.0" encoding="utf-8"?>
<!-- Generator: Adobe Illustrator 15.0.0, SVG Export Plug-In . SVG Version: 6.00 Build 0)  -->
<!DOCTYPE svg PUBLIC "-//W3C//DTD SVG 1.1//EN" "http://www.w3.org/Graphics/SVG/1.1/DTD/svg11.dtd">
<svg version="1.1" id="Layer_1" xmlns="http://www.w3.org/2000/svg" xmlns:xlink="http://www.w3.org/1999/xlink" x="0px" y="0px"
	 width="1500px" height="400px" viewBox="0 0 1500 400" enable-background="new 0 0 1500 400" xml:space="preserve">
<g id="Layer_2">
	<g id="레이어_1">
		<polygon points="165.25,316.136 15.623,63.473 14.235,61.126 0.032,61.126 0.032,338.788 16.072,338.788 16.072,96.145 
			159.821,338.788 170.678,338.788 314.448,96.145 314.448,338.788 330.467,338.788 330.467,61.126 316.284,61.126 		"/>
		<rect x="414.729" y="61.126" width="16.021" height="277.662"/>
		<path d="M537.091,90.575c11.51-8.653,27.489-13.408,45.039-13.408h0.104c14.958,0,28.57,3.449,39.202,10
			c12.428,7.632,20.979,19.325,25.387,34.692l2.041,6.918l15.367-5.122l-1.838-6.326c-2.871-10.521-7.902-20.327-14.773-28.795
			c-5.938-7.102-13.229-12.949-21.449-17.203c-15.957-8.429-33.1-10.204-44.732-10.204c-10.303-0.067-20.556,1.433-30.406,4.449
			c-9.295,2.836-17.966,7.413-25.55,13.489c-7.544,6.094-13.591,13.836-17.673,22.631c-4.377,9.689-6.56,20.226-6.389,30.856
			c-0.152,10.478,2.161,20.846,6.755,30.264c4.244,8.304,10.289,15.555,17.693,21.224c14.285,11.184,33.162,17.796,51.426,23.265
			c17.081,5.08,33.429,10.366,46.021,19.366c14.59,10.47,21.406,23.795,21.447,41.896c0,17.244-6.326,30.938-18.755,40.673
			c-11.143,8.713-26.673,13.51-43.692,13.51l0,0c-13.573,0.178-26.976-3.049-38.979-9.389c-13.541-7.474-23.474-20.115-27.528-35.04
			l-1.716-5.856l-15.714,2.593l1.898,7.325c2.497,10.119,7.162,19.576,13.673,27.715c5.876,7.132,13.084,13.052,21.224,17.429
			c14.632,7.612,30.912,11.51,47.406,11.346l0,0c9.973,0.068,19.896-1.391,29.427-4.326c9.095-2.785,17.572-7.279,24.979-13.244
			c7.428-6.059,13.367-13.737,17.367-22.449c4.317-9.619,6.491-20.063,6.366-30.608c0-22.756-8.938-40.813-26.713-53.836
			c-15.225-11.163-34.815-17.244-50.549-22.141c-17.673-5.388-33.285-10.571-45.428-19.347
			c-13.999-10.203-20.529-23.121-20.57-40.814S524.092,100.37,537.091,90.575z"/>
		<path d="M753.857,90.575c11.51-8.653,27.487-13.408,45.039-13.408h0.102c14.959,0,28.57,3.449,39.203,10
			c12.428,7.632,20.979,19.325,25.387,34.692l2.041,6.918l15.365-5.122l-1.836-6.326c-2.871-10.521-7.902-20.327-14.775-28.795
			c-5.961-7.109-13.279-12.958-21.529-17.203c-15.918-8.408-33.102-10.204-44.731-10.204c-10.283-0.062-20.514,1.438-30.346,4.449
			c-9.296,2.836-17.964,7.413-25.55,13.489c-7.544,6.094-13.591,13.836-17.673,22.631c-4.36,9.694-6.534,20.229-6.366,30.856
			c-0.191,10.499,2.094,20.896,6.672,30.346c4.244,8.304,10.289,15.555,17.692,21.224c14.284,11.183,33.161,17.794,51.427,23.265
			c17.08,5.08,33.427,10.366,46.019,19.366c14.592,10.47,21.408,23.795,21.449,41.896c0,17.244-6.326,30.938-18.757,40.673
			c-11.141,8.713-26.672,13.508-43.711,13.508l0,0c-13.573,0.18-26.975-3.047-38.979-9.387c-13.54-7.474-23.472-20.115-27.528-35.04
			l-1.715-5.856l-15.713,2.613l1.896,7.305c2.539,10.101,7.238,19.527,13.775,27.633c5.877,7.132,13.086,13.052,21.225,17.429
			c14.631,7.612,30.911,11.51,47.405,11.346l0,0c9.974,0.068,19.896-1.391,29.429-4.326c9.092-2.785,17.569-7.279,24.979-13.244
			c7.426-6.059,13.367-13.737,17.365-22.449c4.32-9.619,6.492-20.063,6.367-30.608c0-22.756-8.938-40.813-26.713-53.836
			c-15.226-11.163-34.796-17.244-50.55-22.141c-17.672-5.388-33.284-10.571-45.426-19.347
			c-13.999-10.203-20.53-23.121-20.571-40.814C734.188,114.41,740.817,100.37,753.857,90.575z"/>
		<polygon points="1160.391,192.325 964.543,192.325 964.543,61.126 948.523,61.126 948.523,338.788 964.543,338.788 
			964.543,208.346 1160.391,208.346 1160.391,338.788 1176.432,338.788 1176.432,61.126 1160.391,61.126 		"/>
		<path d="M1371.404,62.514l-0.695-1.388h-11.02l-129.32,277.662h17.836l24.488-52.772h184.992l24.488,52.772h17.795
			L1371.404,62.514z M1280.223,269.977l85.06-183.34l84.977,183.34H1280.223z"/>
	</g>
</g>
</svg>
